<svg width="24" height="24" viewBox="0 0 24 24" fill="none" xmlns="http://www.w3.org/2000/svg">
<path fill-rule="evenodd" clip-rule="evenodd" d="M12 3L12.4062 2.36953L12.4088 2.37118L12.4142 2.3747L12.4336 2.38735C12.4502 2.39824 12.4743 2.41404 12.5052 2.43459C12.5669 2.47567 12.6562 2.53574 12.7691 2.6135C12.9949 2.76896 13.3154 2.99542 13.6992 3.28243C14.4654 3.85548 15.4902 4.67461 16.518 5.65614C17.543 6.63504 18.5892 7.79244 19.3833 9.04424C20.1738 10.2903 20.75 11.6856 20.75 13.125C20.75 15.7589 19.9651 17.9397 18.4197 19.461C16.8913 20.9654 14.711 21.7345 12.0801 21.7498C12.0535 21.75 12.0268 21.7501 12 21.7501C11.9211 21.7501 11.842 21.7494 11.7628 21.748C9.20215 21.7035 7.07817 20.9354 5.58031 19.461C4.03487 17.9397 3.25 15.7589 3.25 13.125C3.25 11.6856 3.82619 10.2903 4.61669 9.04424C5.41084 7.79244 6.45695 6.63504 7.48202 5.65614C8.50984 4.67461 9.53456 3.85548 10.3008 3.28243C10.6846 2.99542 11.0051 2.76896 11.2309 2.6135C11.3438 2.53574 11.4331 2.47567 11.4948 2.43459C11.5257 2.41404 11.5498 2.39824 11.5664 2.38735L11.5858 2.3747L11.5912 2.37118L11.5938 2.36953L12 3ZM12.0755 20.2498C12.0504 20.2499 12.0252 20.25 12 20.25C11.939 20.25 11.8784 20.2496 11.8182 20.2487C10.8381 20.2326 10.0761 20.0836 9.56637 19.768C9.09551 19.4765 8.75 18.988 8.75 18.0001C8.75 16.0553 9.34897 14.2492 10.191 12.3769C10.2634 12.922 10.3766 13.4597 10.5416 13.934C10.6834 14.3415 10.8775 14.7444 11.1508 15.0664C11.4311 15.3968 11.822 15.6705 12.3295 15.7227C12.8267 15.7739 13.3061 15.5987 13.7447 15.3019C13.9275 15.1781 14.112 15.0275 14.2988 14.8505C15.1031 16.7533 15.1954 18.0581 14.8946 18.8623C14.5912 19.6732 13.764 20.2336 12.0755 20.2498ZM16.3732 19.17C16.8407 17.6322 16.3812 15.5854 15.1708 13.1647C15.0556 12.9343 14.8302 12.7792 14.5739 12.7538C14.3176 12.7284 14.0661 12.8363 13.908 13.0397C13.497 13.5681 13.162 13.8849 12.9038 14.0597C12.647 14.2336 12.517 14.2341 12.483 14.2306C12.4593 14.2282 12.397 14.2167 12.2945 14.096C12.185 13.9668 12.0667 13.7525 11.9584 13.4412C11.7424 12.8202 11.6231 11.9806 11.5933 11.1528C11.5633 10.3206 11.6265 9.58634 11.7276 9.18203C11.8204 8.81091 11.619 8.42944 11.2602 8.29672C10.9014 8.16399 10.5003 8.32256 10.3292 8.66472C10.245 8.83301 10.1605 9.00144 10.0758 9.17007C8.67664 11.9566 7.25 14.7978 7.25 18.0001C7.25 18.3551 7.28404 18.6844 7.35021 18.9881C7.09091 18.8067 6.85169 18.6077 6.63259 18.392C5.4404 17.2184 4.75 15.4616 4.75 13.125C4.75 12.0792 5.17381 10.9662 5.88331 9.84778C6.58916 8.73515 7.54305 7.67197 8.51798 6.74094C9.49016 5.81254 10.4654 5.0324 11.1992 4.48366C11.5207 4.24321 11.7946 4.0481 12 3.90536C12.2054 4.0481 12.4793 4.24321 12.8008 4.48366C13.5346 5.0324 14.5098 5.81254 15.482 6.74094C16.457 7.67197 17.4108 8.73515 18.1167 9.84778C18.8262 10.9662 19.25 12.0792 19.25 13.125C19.25 15.4616 18.5596 17.2184 17.3674 18.392C17.0724 18.6823 16.741 18.9426 16.3732 19.17ZM11.5938 2.36953C11.8411 2.21016 12.1589 2.21016 12.4062 2.36953C12.406 2.3694 12.4062 2.36953 12 3C11.5961 2.37314 11.594 2.36943 11.5938 2.36953Z" fill="#0B3924"/>
</svg>
