<svg width="24" height="24" viewBox="0 0 24 24" fill="none" xmlns="http://www.w3.org/2000/svg">
<path fill-rule="evenodd" clip-rule="evenodd" d="M11.75 5C11.75 4.30964 12.3096 3.75 13 3.75C13.6904 3.75 14.25 4.30964 14.25 5C14.25 5.69036 13.6904 6.25 13 6.25C12.3096 6.25 11.75 5.69036 11.75 5ZM13 2.25C11.4812 2.25 10.25 3.48122 10.25 5C10.25 6.51878 11.4812 7.75 13 7.75C14.5188 7.75 15.75 6.51878 15.75 5C15.75 3.48122 14.5188 2.25 13 2.25ZM10.3046 14.5799L11.4632 9.94564L12.4329 8.37699L12.4475 8.37699L13.8494 8.37695C14.2069 8.37694 14.5148 8.62929 14.5849 8.97987C14.685 9.48065 14.967 10.3007 15.4738 11.0478C15.9786 11.7921 16.6627 12.4028 17.553 12.6253C17.9548 12.7258 18.1991 13.133 18.0987 13.5348C17.9982 13.9367 17.591 14.181 17.1892 14.0806C15.8256 13.7397 14.8662 12.8242 14.2324 11.8899C13.7691 11.2068 13.4563 10.481 13.2693 9.87697L13.0265 9.87697L11.8484 14.5895L16.5546 20.6403C16.8089 20.9673 16.75 21.4385 16.423 21.6928C16.0961 21.9471 15.6249 21.8882 15.3705 21.5612L10.4402 15.2222C10.2987 15.0403 10.2487 14.8035 10.3046 14.5799ZM12.4329 8.37699C11.7011 8.37746 10.4632 8.44578 9.39535 9.12916C8.25971 9.85595 7.46484 11.1762 7.46484 13.353C7.46484 13.7672 7.80063 14.103 8.21484 14.103C8.62906 14.103 8.96484 13.7672 8.96484 13.353C8.96484 11.5854 9.57869 10.7927 10.2039 10.3926C10.5889 10.1462 11.0304 10.0142 11.4632 9.94564L11.7133 8.94523C11.7979 8.60695 12.0998 8.3803 12.4329 8.37699ZM10.9278 18.7337C11.1764 18.4024 11.1092 17.9323 10.7778 17.6837C10.4465 17.4352 9.97635 17.5024 9.72783 17.8337L7.61483 20.6511C7.3663 20.9824 7.43346 21.4525 7.76483 21.7011C8.0962 21.9496 8.5663 21.8824 8.81483 21.5511L10.9278 18.7337Z" fill="#0B3924"/>
</svg>
