<svg width="24" height="24" viewBox="0 0 24 24" fill="none" xmlns="http://www.w3.org/2000/svg">
<path fill-rule="evenodd" clip-rule="evenodd" d="M2.75 12C2.75 6.89137 6.89137 2.75 12 2.75C17.1086 2.75 21.25 6.89137 21.25 12C21.25 17.1086 17.1086 21.25 12 21.25C6.89137 21.25 2.75 17.1086 2.75 12ZM12 1.25C6.06294 1.25 1.25 6.06294 1.25 12C1.25 17.9371 6.06294 22.75 12 22.75C17.9371 22.75 22.75 17.9371 22.75 12C22.75 6.06294 17.9371 1.25 12 1.25ZM12.5117 6.94156C12.8196 7.21865 12.8446 7.69287 12.5675 8.00075L12.5575 8.01186C12.2804 8.31975 11.8062 8.34471 11.4983 8.06761C11.1904 7.79052 11.1654 7.3163 11.4425 7.00842L11.4525 6.99731C11.7296 6.68942 12.2038 6.66446 12.5117 6.94156ZM12 10.75C12.4142 10.75 12.75 11.0858 12.75 11.5V16.5C12.75 16.9142 12.4142 17.25 12 17.25C11.5858 17.25 11.25 16.9142 11.25 16.5V11.5C11.25 11.0858 11.5858 10.75 12 10.75Z" fill="#0B3924"/>
</svg>
